<?xml version="1.0" encoding="UTF-8" standalone="no"?>
<svg width="1400" height="900" xmlns="http://www.w3.org/2000/svg" xmlns:xlink="http://www.w3.org/1999/xlink">
  <defs>
    <style type="text/css">
      .title { font: bold 24px sans-serif; fill: #232F3E; }
      .subtitle { font: bold 16px sans-serif; fill: #232F3E; }
      .label { font: 14px sans-serif; fill: #666; }
      .small { font: 12px sans-serif; fill: #888; }
      .tiny { font: 10px sans-serif; fill: #999; }
      .white-label { font: bold 13px sans-serif; fill: white; }
      .white-small { font: 11px sans-serif; fill: white; }
    </style>
  </defs>

  <!-- Background -->
  <rect width="1400" height="900" fill="white"/>

  <!-- AWS Cloud -->
  <rect x="30" y="40" width="1340" height="820" fill="none" stroke="#232F3E" stroke-width="3" rx="10"/>
  <text x="50" y="65" class="subtitle">AWS Cloud (eu-west-1)</text>

  <!-- VPC -->
  <rect x="70" y="110" width="1260" height="720" fill="none" stroke="#8C4FFF" stroke-width="3" rx="8"/>
  <text x="90" y="135" class="label">VPC: example_02_vpc</text>
  <text x="90" y="155" class="small">CIDR: 10.2.0.0/16 | DNS Hostnames: Enabled</text>

  <!-- Internet -->
  <ellipse cx="700" cy="15" rx="80" ry="15" fill="#dae8fc" stroke="#6c8ebf" stroke-width="2"/>
  <text x="700" y="20" text-anchor="middle" class="small" font-weight="bold">Internet</text>

  <!-- Internet Gateway -->
  <rect x="640" y="180" width="120" height="70" fill="#8C4FFF" stroke="#232F3E" stroke-width="2" rx="4"/>
  <text x="700" y="205" text-anchor="middle" class="white-label">Internet Gateway</text>
  <text x="700" y="225" text-anchor="middle" class="white-small">example_02_igw</text>

  <!-- Arrow Internet to IGW -->
  <line x1="700" y1="30" x2="700" y2="180" stroke="#6c8ebf" stroke-width="3" marker-end="url(#arrowblue)"/>

  <!-- Route Table -->
  <rect x="640" y="300" width="120" height="60" fill="#8C4FFF" stroke="#232F3E" stroke-width="2" rx="4"/>
  <text x="700" y="320" text-anchor="middle" class="white-small">Default Route Table</text>
  <text x="700" y="338" text-anchor="middle" class="white-small">Route: 0.0.0.0/0 → IGW</text>

  <!-- Arrow IGW to Route Table (dashed) -->
  <line x1="700" y1="250" x2="700" y2="300" stroke="#8C4FFF" stroke-width="2" stroke-dasharray="5,5"/>

  <!-- Availability Zone 1a -->
  <rect x="100" y="410" width="350" height="390" fill="none" stroke="#147EBA" stroke-width="2" stroke-dasharray="10,5" rx="5"/>
  <text x="120" y="435" class="label" fill="#147EBA" font-weight="bold">Availability Zone: eu-west-1a</text>

  <!-- Subnet 01 -->
  <rect x="120" y="460" width="310" height="310" fill="#E6F6F7" stroke="#00A4A6" stroke-width="2" rx="5"/>
  <text x="140" y="485" class="label" fill="#00A4A6" font-weight="bold">Subnet: example_02_subnet_01</text>
  <text x="140" y="505" class="small" fill="#555">CIDR: 10.2.1.0/24</text>

  <!-- Availability Zone 1b -->
  <rect x="525" y="410" width="350" height="390" fill="none" stroke="#147EBA" stroke-width="2" stroke-dasharray="10,5" rx="5"/>
  <text x="545" y="435" class="label" fill="#147EBA" font-weight="bold">Availability Zone: eu-west-1b</text>

  <!-- Subnet 02 -->
  <rect x="545" y="460" width="310" height="310" fill="#E6F6F7" stroke="#00A4A6" stroke-width="2" rx="5"/>
  <text x="565" y="485" class="label" fill="#00A4A6" font-weight="bold">Subnet: example_02_subnet_02</text>
  <text x="565" y="505" class="small" fill="#555">CIDR: 10.2.2.0/24</text>

  <!-- Availability Zone 1c -->
  <rect x="950" y="410" width="350" height="390" fill="none" stroke="#147EBA" stroke-width="2" stroke-dasharray="10,5" rx="5"/>
  <text x="970" y="435" class="label" fill="#147EBA" font-weight="bold">Availability Zone: eu-west-1c</text>

  <!-- Subnet 03 -->
  <rect x="970" y="460" width="310" height="310" fill="#E6F6F7" stroke="#00A4A6" stroke-width="2" rx="5"/>
  <text x="990" y="485" class="label" fill="#00A4A6" font-weight="bold">Subnet: example_02_subnet_03</text>
  <text x="990" y="505" class="small" fill="#555">CIDR: 10.2.3.0/24</text>

  <!-- Arrows from Route Table to Subnets -->
  <line x1="660" y1="360" x2="660" y2="380" stroke="#00A4A6" stroke-width="1.5" stroke-dasharray="4,2"/>
  <line x1="660" y1="380" x2="275" y2="380" stroke="#00A4A6" stroke-width="1.5" stroke-dasharray="4,2"/>
  <line x1="275" y1="380" x2="275" y2="460" stroke="#00A4A6" stroke-width="1.5" stroke-dasharray="4,2" marker-end="url(#arrowteal)"/>

  <line x1="700" y1="360" x2="700" y2="460" stroke="#00A4A6" stroke-width="1.5" stroke-dasharray="4,2" marker-end="url(#arrowteal)"/>

  <line x1="740" y1="360" x2="740" y2="380" stroke="#00A4A6" stroke-width="1.5" stroke-dasharray="4,2"/>
  <line x1="740" y1="380" x2="1125" y2="380" stroke="#00A4A6" stroke-width="1.5" stroke-dasharray="4,2"/>
  <line x1="1125" y1="380" x2="1125" y2="460" stroke="#00A4A6" stroke-width="1.5" stroke-dasharray="4,2" marker-end="url(#arrowteal)"/>

  <!-- S3 Bucket -->
  <rect x="1100" y="60" width="100" height="90" fill="#7AA116" stroke="#232F3E" stroke-width="2" rx="4"/>
  <text x="1150" y="85" text-anchor="middle" class="white-label">S3 Bucket</text>
  <text x="1150" y="105" text-anchor="middle" class="white-small">proupsa-terraform-</text>
  <text x="1150" y="125" text-anchor="middle" class="white-small">example-02</text>
  <text x="1150" y="170" text-anchor="middle" class="tiny">(Terraform State)</text>

  <!-- Legend -->
  <text x="1070" y="240" class="label" font-weight="bold">Legend:</text>
  <rect x="1070" y="255" width="30" height="15" fill="#8C4FFF" stroke="black"/>
  <text x="1105" y="266" class="small">VPC/Network</text>
  <rect x="1070" y="280" width="30" height="15" fill="#00A4A6" stroke="black"/>
  <text x="1105" y="291" class="small">Subnets</text>
  <rect x="1070" y="305" width="30" height="15" fill="#7AA116" stroke="black"/>
  <text x="1105" y="316" class="small">Storage (S3)</text>
  <rect x="1070" y="330" width="30" height="15" fill="none" stroke="#147EBA" stroke-dasharray="5,3"/>
  <text x="1105" y="341" class="small">Availability Zones</text>

  <!-- Arrow markers -->
  <defs>
    <marker id="arrowblue" markerWidth="10" markerHeight="10" refX="9" refY="3" orient="auto" markerUnits="strokeWidth">
      <path d="M0,0 L0,6 L9,3 z" fill="#6c8ebf" />
    </marker>
    <marker id="arrowteal" markerWidth="10" markerHeight="10" refX="9" refY="3" orient="auto" markerUnits="strokeWidth">
      <path d="M0,0 L0,6 L9,3 z" fill="#00A4A6" />
    </marker>
  </defs>
</svg>
